<svg xmlns="http://www.w3.org/2000/svg" viewBox="0 0 100 100">
  <!-- Background cosmic web -->
  <path d="M10,50 Q30,20 50,50 Q70,80 90,50" fill="none" stroke="#7e57c2" stroke-width="1" opacity="0.3">
    <animate attributeName="stroke-opacity" values="0.2;0.5;0.2" dur="3s" repeatCount="indefinite"/>
  </path>
  <path d="M50,10 Q80,30 50,50 Q20,70 50,90" fill="none" stroke="#7e57c2" stroke-width="1" opacity="0.3">
    <animate attributeName="stroke-opacity" values="0.5;0.2;0.5" dur="3s" repeatCount="indefinite"/>
  </path>
  
  <!-- Expanding spheres -->
  <circle cx="50" cy="50" r="45" fill="none" stroke="#7e57c2" stroke-width="2">
    <animate attributeName="r" values="35;45;35" dur="5s" repeatCount="indefinite"/>
    <animate attributeName="stroke-opacity" values="0.3;0.8;0.3" dur="5s" repeatCount="indefinite"/>
  </circle>
  
  <!-- Galaxies -->
  <g>
    <animateTransform attributeName="transform" type="rotate" from="0 50 50" to="360 50 50" dur="30s" repeatCount="indefinite"/>
    <g transform="translate(30,30) scale(0.3)">
      <path d="M50,20 Q80,50 50,80 Q20,50 50,20" fill="none" stroke="#ce93d8" stroke-width="8"/>
    </g>
    <g transform="translate(60,60) scale(0.2)">
      <path d="M50,20 Q80,50 50,80 Q20,50 50,20" fill="none" stroke="#ce93d8" stroke-width="8"/>
    </g>
    <g transform="translate(70,20) scale(0.25)">
      <path d="M50,20 Q80,50 50,80 Q20,50 50,20" fill="none" stroke="#ce93d8" stroke-width="8"/>
    </g>
  </g>
  
  <!-- Stars -->
  <g>
    <animateTransform attributeName="transform" type="rotate" from="360 50 50" to="0 50 50" dur="15s" repeatCount="indefinite"/>
    <circle cx="30" cy="30" r="2" fill="#ffd700">
      <animate attributeName="fill-opacity" values="0.5;1;0.5" dur="2s" repeatCount="indefinite"/>
    </circle>
    <circle cx="70" cy="40" r="2" fill="#ffd700">
      <animate attributeName="fill-opacity" values="1;0.5;1" dur="3s" repeatCount="indefinite"/>
    </circle>
    <circle cx="45" cy="65" r="2" fill="#ffd700">
      <animate attributeName="fill-opacity" values="0.5;1;0.5" dur="2.5s" repeatCount="indefinite"/>
    </circle>
    <circle cx="60" cy="25" r="2" fill="#ffd700">
      <animate attributeName="fill-opacity" values="1;0.5;1" dur="2.8s" repeatCount="indefinite"/>
    </circle>
  </g>
</svg>
